<svg width="646" height="132" viewBox="0 0 646 132" fill="none" xmlns="http://www.w3.org/2000/svg">
<path fill-rule="evenodd" clip-rule="evenodd" d="M141.543 49.2009C132.304 49.2009 124.814 56.6907 124.814 65.93C124.814 75.1692 132.304 82.659 141.543 82.659C150.782 82.659 158.272 75.1692 158.272 65.93C158.272 56.6907 150.782 49.2009 141.543 49.2009ZM108.592 65.93C108.592 47.7315 123.345 32.9787 141.543 32.9787C159.741 32.9787 174.494 47.7315 174.494 65.93C174.494 84.1284 159.741 98.8812 141.543 98.8812C123.345 98.8812 108.592 84.1284 108.592 65.93Z" fill="#192734"/>
<path fill-rule="evenodd" clip-rule="evenodd" d="M514.287 49.2009C505.048 49.2009 497.558 56.6907 497.558 65.93C497.558 75.1692 505.048 82.659 514.287 82.659C523.527 82.659 531.016 75.1692 531.016 65.93C531.016 56.6907 523.527 49.2009 514.287 49.2009ZM481.336 65.93C481.336 47.7315 496.089 32.9787 514.287 32.9787C532.486 32.9787 547.239 47.7315 547.239 65.93C547.239 84.1284 532.486 98.8812 514.287 98.8812C496.089 98.8812 481.336 84.1284 481.336 65.93Z" fill="#4C5A67"/>
<path fill-rule="evenodd" clip-rule="evenodd" d="M586.934 49.2009C577.695 49.2009 570.205 56.6907 570.205 65.93C570.205 75.1692 577.695 82.659 586.934 82.659C596.173 82.659 603.663 75.1692 603.663 65.93C603.663 56.6907 596.173 49.2009 586.934 49.2009ZM553.983 65.93C553.983 47.7315 568.735 32.9787 586.934 32.9787C605.132 32.9787 619.885 47.7315 619.885 65.93C619.885 84.1284 605.132 98.8812 586.934 98.8812C568.735 98.8812 553.983 84.1284 553.983 65.93Z" fill="#4C5A67"/>
<path fill-rule="evenodd" clip-rule="evenodd" d="M185.075 131.987C157.877 117.439 125.21 117.439 98.0116 131.987L90.2073 117.397C122.281 100.241 160.805 100.241 192.879 117.397L185.075 131.987Z" fill="#192734"/>
<path d="M312.319 98.8954C307.116 98.8954 302.5 98.4557 298.469 97.5763C294.512 96.7702 290.371 95.3412 286.048 93.2894V76.4712C290.225 78.8162 294.439 80.5017 298.689 81.5277C302.939 82.5536 307.483 83.0666 312.319 83.0666C317.083 83.0666 319.464 81.6376 319.464 78.7796C319.464 77.6071 319.134 76.7277 318.475 76.1415C317.815 75.5552 316.753 75.0789 315.287 74.7125L304.625 72.514C298.396 71.2682 293.852 69.1431 290.994 66.1385C288.136 63.134 286.707 59.0302 286.707 53.8272C286.707 46.7922 288.869 41.5892 293.193 38.2182C297.59 34.774 304.222 33.0519 313.089 33.0519C316.753 33.0519 320.563 33.4183 324.521 34.1511C328.551 34.8839 332.362 35.8366 335.953 37.0091V53.2776C333.168 51.9585 329.76 50.896 325.73 50.0899C321.773 49.2838 317.889 48.8807 314.078 48.8807C311.073 48.8807 308.985 49.1738 307.812 49.7601C306.64 50.3464 306.054 51.2624 306.054 52.5082C306.054 53.4608 306.347 54.157 306.933 54.5967C307.519 54.9631 308.509 55.2929 309.901 55.586L320.563 57.7844C327.012 59.1035 331.666 61.2653 334.524 64.2698C337.382 67.2744 338.811 71.7446 338.811 77.6804C338.811 84.7887 336.429 90.1016 331.666 93.6191C326.902 97.1366 320.454 98.8954 312.319 98.8954Z" fill="#4C5A67"/>
<path fill-rule="evenodd" clip-rule="evenodd" d="M0.766479 61.2959C0.766479 45.6566 13.4446 32.9785 29.0839 32.9785C44.7232 32.9785 57.4014 45.6566 57.4014 61.2959V98.8809H40.9258V61.2959C40.9258 54.7559 35.624 49.4541 29.0839 49.4541C22.5439 49.4541 17.2421 54.7559 17.2421 61.2959V98.8809H0.766479V61.2959Z" fill="black"/>
<path fill-rule="evenodd" clip-rule="evenodd" d="M40.9734 61.2959C40.9734 45.6566 53.6515 32.9785 69.2908 32.9785C84.9301 32.9785 97.6083 45.6566 97.6083 61.2959V98.8809H81.1327V61.2959C81.1327 54.7559 75.8309 49.4541 69.2908 49.4541C62.7508 49.4541 57.449 54.7559 57.449 61.2959V98.8809H40.9734V61.2959Z" fill="black"/>
<path fill-rule="evenodd" clip-rule="evenodd" d="M185.478 61.2959C185.478 45.6566 198.156 32.9785 213.795 32.9785C229.435 32.9785 242.113 45.6566 242.113 61.2959V98.8809H225.637V61.2959C225.637 54.7559 220.335 49.4541 213.795 49.4541C207.255 49.4541 201.954 54.7559 201.954 61.2959V98.8809H185.478V61.2959Z" fill="black"/>
<path fill-rule="evenodd" clip-rule="evenodd" d="M434.45 35.5591V0.0127869H417.959V98.8809H434.45V60.6988C434.761 54.4361 439.937 49.4541 446.277 49.4541C452.817 49.4541 458.119 54.7559 458.119 61.2959V98.8809H474.594V61.2959C474.594 45.6566 461.916 32.9785 446.277 32.9785C442.055 32.9785 438.049 33.9024 434.45 35.5591Z" fill="#4C5A67"/>
<path d="M645.233 0.0127869L645.233 98.8809H628.743V0.0127869L645.233 0.0127869Z" fill="#4C5A67"/>
<path fill-rule="evenodd" clip-rule="evenodd" d="M382.753 98.8954C364.55 98.8954 349.794 84.1394 349.794 65.937C349.794 47.7346 364.55 32.9787 382.753 32.9787L406.976 32.9787L406.976 52.1544L382.753 52.1544C375.141 52.1544 368.97 58.3251 368.97 65.937C368.97 73.5489 375.141 79.7196 382.753 79.7196L406.976 79.7196L406.976 98.8954L382.753 98.8954Z" fill="#4C5A67"/>
</svg>
