<svg width="645" height="132" viewBox="0 0 645 132" fill="none" xmlns="http://www.w3.org/2000/svg">
<rect width="645" height="132" fill="#F9FAFA"/>
<g clip-path="url(#clip0)">
<path fill-rule="evenodd" clip-rule="evenodd" d="M184.712 61.3174C184.712 45.6782 197.39 33 213.029 33C228.668 33 241.346 45.6782 241.346 61.3174V98.9024H224.871V61.3174C224.871 54.7774 219.569 49.4756 213.029 49.4756C206.489 49.4756 201.187 54.7774 201.187 61.3174V98.9024H184.712V61.3174Z" fill="#192734"/>
<path fill-rule="evenodd" clip-rule="evenodd" d="M184.309 131.974C157.111 117.427 124.443 117.427 97.2451 131.974L89.4408 117.384C121.515 100.228 160.039 100.228 192.113 117.384L184.309 131.974Z" fill="#192734"/>
<path fill-rule="evenodd" clip-rule="evenodd" d="M140.777 49.1881C131.537 49.1881 124.047 56.6779 124.047 65.9172C124.047 75.1564 131.537 82.6462 140.777 82.6462C150.016 82.6462 157.506 75.1564 157.506 65.9172C157.506 56.6779 150.016 49.1881 140.777 49.1881ZM107.825 65.9172C107.825 47.7187 122.578 32.966 140.777 32.966C158.975 32.966 173.728 47.7187 173.728 65.9172C173.728 84.1156 158.975 98.8684 140.777 98.8684C122.578 98.8684 107.825 84.1156 107.825 65.9172Z" fill="#192734"/>
<path fill-rule="evenodd" clip-rule="evenodd" d="M0 61.2831C0 45.6439 12.6782 32.9657 28.3174 32.9657C43.9567 32.9657 56.6349 45.6439 56.6349 61.2831V98.8681H40.1593V61.2831C40.1593 54.7431 34.8575 49.4413 28.3174 49.4413C21.7774 49.4413 16.4756 54.7431 16.4756 61.2831V98.8681H0V61.2831Z" fill="#192734"/>
<path fill-rule="evenodd" clip-rule="evenodd" d="M40.2069 61.2831C40.2069 45.6439 52.885 32.9657 68.5243 32.9657C84.1636 32.9657 96.8418 45.6439 96.8418 61.2831V98.8681H80.3662V61.2831C80.3662 54.7431 75.0644 49.4413 68.5243 49.4413C61.9843 49.4413 56.6825 54.7431 56.6825 61.2831V98.8681H40.2069V61.2831Z" fill="#192734"/>
<path d="M644.467 -3.8147e-06L644.467 98.8682H627.977V-3.8147e-06L644.467 -3.8147e-06Z" fill="#192734"/>
<path fill-rule="evenodd" clip-rule="evenodd" d="M513.521 49.1881C504.282 49.1881 496.792 56.6779 496.792 65.9172C496.792 75.1564 504.282 82.6462 513.521 82.6462C522.76 82.6462 530.25 75.1564 530.25 65.9172C530.25 56.6779 522.76 49.1881 513.521 49.1881ZM480.57 65.9172C480.57 47.7187 495.322 32.966 513.521 32.966C531.719 32.966 546.472 47.7187 546.472 65.9172C546.472 84.1156 531.719 98.8684 513.521 98.8684C495.322 98.8684 480.57 84.1156 480.57 65.9172Z" fill="#192734"/>
<path fill-rule="evenodd" clip-rule="evenodd" d="M586.167 49.1881C576.928 49.1881 569.438 56.6779 569.438 65.9172C569.438 75.1564 576.928 82.6462 586.167 82.6462C595.406 82.6462 602.896 75.1564 602.896 65.9172C602.896 56.6779 595.406 49.1881 586.167 49.1881ZM553.216 65.9172C553.216 47.7187 567.969 32.966 586.167 32.966C604.366 32.966 619.118 47.7187 619.118 65.9172C619.118 84.1156 604.366 98.8684 586.167 98.8684C567.969 98.8684 553.216 84.1156 553.216 65.9172Z" fill="#192734"/>
<path fill-rule="evenodd" clip-rule="evenodd" d="M433.683 35.5463V-3.8147e-06H417.193V98.8682H433.683V60.686C433.994 54.4234 439.17 49.4413 445.51 49.4413C452.05 49.4413 457.352 54.7431 457.352 61.2831V98.8681H473.828V61.2831C473.828 45.6439 461.15 32.9657 445.51 32.9657C441.288 32.9657 437.282 33.8896 433.683 35.5463Z" fill="#192734"/>
<path fill-rule="evenodd" clip-rule="evenodd" d="M381.986 98.8826C363.784 98.8826 349.028 84.1267 349.028 65.9242C349.028 47.7218 363.784 32.9659 381.986 32.9659L406.209 32.9659L406.209 52.1417L381.986 52.1416C374.374 52.1417 368.204 58.3123 368.204 65.9242C368.204 73.5362 374.374 79.7068 381.986 79.7068L406.209 79.7068L406.209 98.8826L381.986 98.8826Z" fill="#192734"/>
<path d="M311.271 98.8435C306.068 98.8435 301.452 98.4038 297.421 97.5244C293.464 96.7183 289.324 95.2893 285 93.2375V76.4193C289.177 78.7643 293.391 80.4498 297.641 81.4758C301.891 82.5017 306.435 83.0147 311.271 83.0147C316.035 83.0147 318.416 81.5857 318.416 78.7277C318.416 77.5552 318.087 76.6758 317.427 76.0896C316.768 75.5033 315.705 75.027 314.239 74.6606L303.577 72.4621C297.348 71.2164 292.804 69.0912 289.947 66.0866C287.089 63.0821 285.66 58.9783 285.66 53.7753C285.66 46.7403 287.821 41.5373 292.145 38.1664C296.542 34.7221 303.174 33 312.041 33C315.705 33 319.516 33.3664 323.473 34.0992C327.503 34.832 331.314 35.7847 334.905 36.9572V53.2257C332.12 51.9067 328.712 50.8441 324.682 50.038C320.725 49.2319 316.841 48.8288 313.03 48.8288C310.026 48.8288 307.937 49.122 306.765 49.7082C305.592 50.2945 305.006 51.2105 305.006 52.4563C305.006 53.4089 305.299 54.1051 305.885 54.5448C306.472 54.9112 307.461 55.241 308.853 55.5341L319.516 57.7325C325.964 59.0516 330.618 61.2134 333.476 64.218C336.334 67.2225 337.763 71.6927 337.763 77.6285C337.763 84.7368 335.381 90.0497 330.618 93.5672C325.854 97.0847 319.406 98.8435 311.271 98.8435Z" fill="#192734"/>
<path fill-rule="evenodd" clip-rule="evenodd" d="M257 56C257 52.6863 259.686 50 263 50C266.314 50 269 52.6863 269 56C269 59.3137 266.314 62 263 62C259.686 62 257 59.3137 257 56Z" fill="#192734"/>
<path fill-rule="evenodd" clip-rule="evenodd" d="M257 76C257 72.6863 259.686 70 263 70C266.314 70 269 72.6863 269 76C269 79.3137 266.314 82 263 82C259.686 82 257 79.3137 257 76Z" fill="#192734"/>
</g>
<defs>
<clipPath id="clip0">
<rect width="644.467" height="131.974" fill="white"/>
</clipPath>
</defs>
</svg>
